<svg width="86" height="38" viewBox="0 0 86 38" fill="none" xmlns="http://www.w3.org/2000/svg">
<path d="M1.2604 25.4462C0.879245 25.4462 0.571726 25.3365 0.337838 25.1172C0.112613 24.8892 0 24.5909 0 24.2225V16.2361H1.79314V23.8673H6.73078V25.4462H1.2604Z" fill="#001D35"/>
<path d="M12.9421 25.5514C12.2578 25.5514 11.6514 25.4067 11.123 25.1172C10.6032 24.819 10.1961 24.4067 9.90156 23.8805C9.6157 23.3454 9.47277 22.727 9.47277 22.0253V19.657C9.47277 18.9553 9.6157 18.3413 9.90156 17.815C10.1961 17.2799 10.6032 16.8677 11.123 16.5782C11.6514 16.28 12.2578 16.1309 12.9421 16.1309H14.3194C15.0038 16.1309 15.6058 16.28 16.1256 16.5782C16.654 16.8677 17.0611 17.2799 17.347 17.815C17.6415 18.3413 17.7888 18.9553 17.7888 19.657V22.0253C17.7888 22.727 17.6415 23.3454 17.347 23.8805C17.0611 24.4067 16.654 24.819 16.1256 25.1172C15.6058 25.4067 15.0038 25.5514 14.3194 25.5514H12.9421ZM14.3194 23.9462C14.8219 23.9462 15.2247 23.762 15.5279 23.3936C15.8397 23.0252 15.9956 22.5428 15.9956 21.9463V19.7359C15.9956 19.1395 15.8397 18.657 15.5279 18.2886C15.2247 17.9202 14.8219 17.736 14.3194 17.736H12.9421C12.4397 17.736 12.0325 17.9202 11.7207 18.2886C11.4175 18.657 11.2659 19.1395 11.2659 19.7359V21.9463C11.2659 22.5428 11.4175 23.0252 11.7207 23.3936C12.0325 23.762 12.4397 23.9462 12.9421 23.9462H14.3194Z" fill="#001D35"/>
<path d="M24.6642 25.5514C23.9972 25.5514 23.4081 25.4067 22.8971 25.1172C22.3946 24.8278 22.0048 24.4199 21.7276 23.8936C21.4504 23.3586 21.3118 22.7445 21.3118 22.0516V19.6307C21.3118 18.9377 21.4504 18.3281 21.7276 17.8018C22.0135 17.2668 22.412 16.8545 22.923 16.565C23.4428 16.2756 24.0405 16.1309 24.7162 16.1309H26.0935C26.7432 16.1309 27.3149 16.2712 27.8087 16.5519C28.3025 16.8326 28.6836 17.2273 28.9522 17.736C29.2294 18.236 29.368 18.8193 29.368 19.4859H27.6008C27.6008 18.9597 27.4622 18.5386 27.185 18.2229C26.9078 17.8983 26.544 17.736 26.0935 17.736H24.7162C24.2311 17.736 23.8413 17.9202 23.5467 18.2886C23.2522 18.6483 23.105 19.1219 23.105 19.7096V21.9727C23.105 22.5603 23.2479 23.0384 23.5338 23.4068C23.8196 23.7664 24.1964 23.9462 24.6642 23.9462H26.0675C26.5267 23.9462 26.8991 23.7664 27.185 23.4068C27.4795 23.0472 27.6268 22.5735 27.6268 21.9858H29.3939C29.3939 22.6963 29.2553 23.3235 28.9781 23.8673C28.7009 24.4024 28.3111 24.819 27.8087 25.1172C27.3063 25.4067 26.7259 25.5514 26.0675 25.5514H24.6642Z" fill="#001D35"/>
<path d="M38.0276 23.3015H34.6232L33.8176 25.4462H31.9465L35.5068 16.2361H36.3124C36.8755 16.2361 37.2566 16.4993 37.4559 17.0255L40.6913 25.4462H38.8202L38.0276 23.3015ZM35.104 21.7753H37.5468L36.3384 18.4597H36.3254L35.104 21.7753Z" fill="#001D35"/>
<path d="M45.1651 25.4462C44.784 25.4462 44.4765 25.3365 44.2426 25.1172C44.0174 24.8892 43.9047 24.5909 43.9047 24.2225V16.2361H45.6979V23.8673H50.6355V25.4462H45.1651Z" fill="#001D35"/>
<path d="M0 28.0118H1.59302L4.55887 33.4852L7.45997 28.0118H9.05299V37.2219H7.30455V31.3932L5.40071 34.893C5.2712 35.1299 5.13736 35.3009 4.99922 35.4062C4.8697 35.5027 4.71861 35.5509 4.54592 35.5509H4.05377L1.74844 31.3932V37.2219H0V28.0118Z" fill="#0096F2"/>
<path d="M16.2894 37.3271C15.6073 37.3271 15.0029 37.1824 14.4763 36.8929C13.9582 36.5947 13.5524 36.1824 13.2588 35.6562C12.9739 35.1211 12.8314 34.5027 12.8314 33.801V31.4327C12.8314 30.731 12.9739 30.117 13.2588 29.5907C13.5524 29.0556 13.9582 28.6434 14.4763 28.3539C15.0029 28.0557 15.6073 27.9066 16.2894 27.9066H17.6623C18.3444 27.9066 18.9445 28.0557 19.4625 28.3539C19.9892 28.6434 20.395 29.0556 20.6799 29.5907C20.9735 30.117 21.1203 30.731 21.1203 31.4327V33.801C21.1203 34.5027 20.9735 35.1211 20.6799 35.6562C20.395 36.1824 19.9892 36.5947 19.4625 36.8929C18.9445 37.1824 18.3444 37.3271 17.6623 37.3271H16.2894ZM17.6623 35.7219C18.1631 35.7219 18.5646 35.5377 18.8668 35.1693C19.1776 34.8009 19.333 34.3185 19.333 33.722V31.5116C19.333 30.9152 19.1776 30.4327 18.8668 30.0643C18.5646 29.6959 18.1631 29.5117 17.6623 29.5117H16.2894C15.7887 29.5117 15.3829 29.6959 15.072 30.0643C14.7698 30.4327 14.6187 30.9152 14.6187 31.5116V33.722C14.6187 34.3185 14.7698 34.8009 15.072 35.1693C15.3829 35.5377 15.7887 35.7219 16.2894 35.7219H17.6623Z" fill="#0096F2"/>
<path d="M28.083 37.2219C27.5822 37.2219 27.2238 36.9412 27.008 36.3798L23.8867 28.0118H25.7517L28.1348 34.9193H28.1607L30.5567 28.0118H32.4087L28.9248 37.2219H28.083Z" fill="#0096F2"/>
<path d="M36.9483 37.2219C36.5771 37.2219 36.2749 37.1078 36.0418 36.8798C35.8086 36.6517 35.6921 36.3535 35.6921 35.9851V28.0118H42.6081V29.5907H37.4793V31.7221H42.2195V33.301H37.4793V35.643H42.6081V37.2219H36.9483Z" fill="#0096F2"/>
<path d="M46.253 28.0118H51.0709C51.8566 28.0118 52.4869 28.2267 52.9618 28.6565C53.4453 29.0863 53.687 29.6521 53.687 30.3538V31.2748C53.687 31.7309 53.5575 32.13 53.2985 32.4721C53.0481 32.8054 52.6811 33.0598 52.1976 33.2352V33.2615C52.4739 33.4457 52.6811 33.6563 52.8193 33.8931C52.9661 34.1299 53.1085 34.4588 53.2467 34.8799L53.972 37.2219H52.1199L51.4335 35.0378C51.3213 34.6606 51.1658 34.3799 50.9672 34.1957C50.7687 34.0115 50.5226 33.9194 50.229 33.9194H48.0403V37.2219H46.253V28.0118ZM50.7341 32.3537C51.0968 32.3537 51.3817 32.2572 51.5889 32.0642C51.7961 31.8625 51.8998 31.6037 51.8998 31.288V30.4327C51.8998 30.1784 51.822 29.9766 51.6666 29.8275C51.5112 29.6696 51.304 29.5907 51.045 29.5907H48.0403V32.3537H50.7341Z" fill="#0096F2"/>
<path d="M57.1121 1.57255C53.2654 3.69218 43.0794 11.2875 38.4673 14.8202C41.8037 12.8576 46.0234 11.1894 47.6916 12.6613C49.0262 13.8389 50.2103 16.7501 50.6355 18.0585L51.6659 20.0702L52.6963 22.0819C53.7953 24.28 56.8178 25.2875 58.1916 25.5165C55.9346 25.0258 53.0888 17.8623 52.8925 15.409C52.7355 13.4464 50.8645 10.7969 49.9486 9.71741C50.243 9.12863 53.3832 7.65667 55.1495 6.57723C56.5626 5.71367 57.243 6.34825 57.4065 6.77349C58.3878 8.7361 58.8785 17.8623 58.8785 20.3155C58.8785 22.2782 59.4019 25.7782 59.6635 27.2828C59.5654 24.2735 59.3692 17.7249 59.3692 15.6053C59.3692 12.9557 58.2897 6.08657 58.0935 4.909C57.9364 3.96695 57.3738 4.12396 57.1121 4.32022C55.6991 4.79124 50.9626 8.11461 48.771 9.71741C51.0477 12.7006 52.4673 17.5025 52.8925 19.5305C52.1075 19.0595 51.3878 16.9137 51.1262 15.8997C50.1841 11.8959 47.7897 10.1099 46.7103 9.71741C47.2598 9.5604 47.7897 9.65199 47.986 9.71741L47.6916 9.32489C49.9486 7.65667 54.9533 4.06508 56.9159 3.04452C58.8785 2.02396 60.6776 1.89966 61.3318 1.96508C70.9878 2.4361 77.1963 4.909 79.0935 6.08657C75.0031 3.94401 63.6637 2.86463 61.4782 2.65659L61.4299 2.65199C59.7813 2.49498 59.2383 3.3062 59.1729 3.73143L59.3692 8.63797C59.9972 19.0791 60.6776 23.1286 60.9392 23.8483C61.2009 24.1099 63.2551 24.7903 69.3785 25.4183C75.5019 26.0464 81.743 25.3529 84.0981 24.9277L84.2944 26.694C81.743 28.5585 79.3878 28.9511 72.715 28.9511C67.3766 28.9511 62.3785 27.3155 60.5467 26.4978C60.2327 27.6754 60.6776 29.2127 60.9392 29.8342V27.2828L61.3318 27.4791L61.4299 29.8342C63.314 30.7763 66.9252 31.0772 68.4953 31.1099C66.8467 31.0314 63.4907 30.0959 62.0187 29.638L61.9206 27.7735L68.3972 29.1473L69.4766 31.5025C75.443 32.523 79.6168 31.6006 80.9579 31.0118L81.3505 28.8529C82.057 28.6959 83.4112 28.0025 84 27.6754L83.9019 29.1473C83.4308 29.8539 82.2009 30.5539 81.6449 30.8155C82.0374 30.8155 83.5748 29.9651 84.2944 29.5398L84 33.1707C84 34.4268 81.9065 35.1333 80.8598 35.3296C74.1869 36.8212 63.9486 35.9511 59.6635 35.3296C61.2336 37.6062 68.757 37.5212 72.3224 37.194C73.8925 37.0632 77.857 36.7426 81.1542 36.5071C84.4514 36.2716 85.1449 33.9884 85.0794 32.8763C85.0794 31.8557 85.2103 28.9183 85.2757 27.5772C85.6682 25.9286 85.1121 24.0118 84.785 23.2595C83.843 24.0445 78.3084 24.1754 75.6589 24.1426C67.4159 24.3782 63.0654 23.194 61.9206 22.5726C61.1355 19.1969 60.6121 9.84825 60.4486 5.59592C63.3533 6.06695 64.0794 8.7361 64.0794 10.0118H61.9206V15.6053H66.1402C66.2056 14.4277 66.2187 11.3856 65.7477 8.63797C65.2766 5.89031 62.0841 4.74545 60.5467 4.51648C60.9392 2.84825 67.1215 4.32022 70.6542 4.81087C74.1869 5.30153 78.6028 6.77349 79.9766 7.36227C81.0757 7.8333 82.0047 10.437 82.3318 11.68H82.9206C82.9206 11.209 82.2009 8.99779 81.8411 7.95106C83.8822 8.7361 84.3271 11.1567 84.2944 12.2688H82.528V17.1754H85.9626V12.6613C85.8841 8.26508 82.7243 6.77349 81.1542 6.57723C81.0757 5.79218 77.9813 4.54919 76.4439 4.02583C71.6028 2.32489 60.9589 -0.547072 57.1121 1.57255Z" fill="#0096F2"/>
</svg>
